<svg width="512" height="512" xmlns="http://www.w3.org/2000/svg">

 <g>
  <title>background</title>
  <rect fill="none" id="canvas_background" height="402" width="582" y="-1" x="-1"/>
 </g>
 <g>
  <title>Layer 1</title>
  <path fill="#ffffff" id="svg_2" d="m286.201,194.5l-113.381,0c-3.105,0 -5.625,-2.895 -5.625,-6s2.52,-6 5.625,-6l106.613,0c-2.576,-4 -4.824,-11 -6.73,-15l-99.883,0c-3.105,0 -5.625,-2.873 -5.625,-6c0,-3.105 2.52,-6 5.625,-6l96.42,0c-2.479,-9 -3.82,-19.604 -3.82,-30.035c0,-19.057 4.219,-36.965 12.049,-52.965l-210.151,0c-9.27,0 -15.818,7.825 -15.818,17.097l0,322.903l231.877,0c5.74,0 11.244,1.773 15.553,5.527c0.523,0.438 1.332,1.037 2.469,2.32l0.442,0.223c3.525,4.229 5.659,9.544 5.659,15.099l0,24.889c0,14.576 9,35.389 21,35.389l0,-0.285c-19,-0.281 -34,-15.865 -34,-35.104l0,-24.889c0,-2.482 -1.315,-4.77 -2.774,-6.521c0,0 -0.975,-0.817 -1.291,-1.058c-1.801,-1.631 -4.429,-2.59 -7.058,-2.59l-257.742,0c-5.67,0 -10.135,4.499 -10.135,10.169l0,24.184c0,19.803 15.924,35.647 35.729,35.647l277,0l0,0c9,0 16.243,-2.703 22.206,-7.385c8.213,-6.412 14.065,-16.313 14.065,-27.563l0,-214.762c-33,-6.297 -60.498,-24.29 -78.299,-51.29zm-177.166,-44.675c6.168,0 11.846,2.049 16.441,5.471l-20.225,20.221l-3.646,-4.314c-2.207,-2.609 -6.115,-2.936 -8.719,-0.729c-2.611,2.207 -2.936,6.111 -0.73,8.721l7.992,9.449c1.115,1.322 2.736,2.113 4.467,2.186c0.086,0.004 0.172,0.006 0.258,0.006c1.637,0 3.211,-0.648 4.373,-1.811l24.283,-24.281c1.969,3.799 3.1,8.102 3.1,12.676c0,15.238 -12.355,27.594 -27.594,27.594c-15.24,0 -27.592,-12.355 -27.592,-27.594c0,-15.241 12.352,-27.595 27.592,-27.595zm0,87.807c6.168,0 11.844,2.049 16.441,5.469l-20.225,20.223l-3.646,-4.314c-2.207,-2.609 -6.115,-2.936 -8.719,-0.729c-2.611,2.205 -2.936,6.111 -0.73,8.721l7.992,9.449c1.115,1.32 2.736,2.113 4.467,2.186c0.086,0.004 0.172,0.006 0.258,0.006c1.637,0 3.211,-0.65 4.373,-1.813l24.283,-24.279c1.969,3.799 3.1,8.102 3.1,12.674c0,15.24 -12.355,27.594 -27.594,27.594c-15.24,0 -27.592,-12.354 -27.592,-27.594c0,-15.24 12.352,-27.593 27.592,-27.593zm0,142.992c-15.24,0 -27.592,-12.354 -27.592,-27.592c0,-15.24 12.352,-27.594 27.592,-27.594c6.168,0 11.844,2.049 16.441,5.469l-20.225,20.223l-3.646,-4.314c-2.207,-2.609 -6.115,-2.936 -8.719,-0.729c-2.611,2.205 -2.936,6.109 -0.73,8.719l7.992,9.449c1.115,1.322 2.736,2.113 4.467,2.188c0.086,0.002 0.172,0.004 0.258,0.004c1.637,0 3.211,-0.648 4.373,-1.811l24.283,-24.279c1.969,3.797 3.1,8.102 3.1,12.676c0,15.238 -12.356,27.591 -27.594,27.591zm203.404,-11.124l-139.607,0c-3.107,0 -5.625,-2.393 -5.625,-5.5s2.518,-5.5 5.625,-5.5l139.607,0c3.105,0 5.625,2.393 5.625,5.5s-2.519,5.5 -5.625,5.5zm0,-27l-139.607,0c-3.107,0 -5.625,-2.393 -5.625,-5.5s2.518,-5.5 5.625,-5.5l139.607,0c3.105,0 5.625,2.393 5.625,5.5s-2.519,5.5 -5.625,5.5zm0,-61l-139.607,0c-3.107,0 -5.625,-2.393 -5.625,-5.5s2.518,-5.5 5.625,-5.5l139.607,0c3.105,0 5.625,2.393 5.625,5.5s-2.519,5.5 -5.625,5.5zm5.625,-32.5c0,3.107 -2.52,5.5 -5.625,5.5l-139.607,0c-3.107,0 -5.625,-2.393 -5.625,-5.5s2.518,-5.5 5.625,-5.5l139.607,0c3.106,0 5.625,2.393 5.625,5.5z"/>
  <path fill="#ffffff" id="svg_3" d="m387.27,16.358c-60.549,0 -109.645,49.096 -109.645,109.666c0,60.547 49.096,109.641 109.645,109.641c60.568,0 109.641,-49.094 109.641,-109.641c-0.001,-60.57 -49.073,-109.666 -109.641,-109.666zm6.23,124.426c0,0.09 -0.022,0.203 -0.044,0.291c-0.092,2.295 -1.477,4.367 -3.566,5.334c-0.832,0.381 -1.739,0.563 -2.616,0.563c-1.352,0 -2.702,-0.449 -3.806,-1.328c-0.066,-0.045 -0.135,-0.113 -0.203,-0.156l-32.332,-27.496l-0.046,-0.023l-2.588,-2.205c-2.611,-2.205 -2.926,-6.119 -0.697,-8.707c2.205,-2.609 5.329,-2.924 7.917,-0.719l23.981,21.061l0,-64.51c0,-3.42 3.578,-6.188 7,-6.188c3.418,0 7,2.768 7,6.188l0,77.895z"/>
 </g>
</svg>