<svg width="512" height="512" xmlns="http://www.w3.org/2000/svg">

 <g>
  <title>background</title>
  <rect fill="none" id="canvas_background" height="402" width="582" y="-1" x="-1"/>
 </g>
 <g>
  <title>Layer 1</title>
  <path fill="#ffffff" id="svg_2" d="m255.999,189.183c-37.03,0 -67.156,29.974 -67.156,66.818c0,36.843 30.126,66.817 67.156,66.817c37.03,0 67.155,-29.975 67.155,-66.817c0,-36.844 -30.125,-66.818 -67.155,-66.818zm22.884,100.015c-4.43,4.954 -10.553,8.024 -18.439,9.253l0,11.18l-8.762,0l0,-11.056c-6.915,-0.845 -12.536,-3.383 -16.877,-7.66c-4.34,-4.276 -7.096,-10.343 -8.31,-18.141l15.676,-1.848c0.637,3.2 1.851,5.942 3.626,8.256c1.768,2.313 3.721,3.972 5.884,5.019l0,-25.088c-7.843,-2.233 -13.581,-5.615 -17.219,-10.14c-3.67,-4.545 -5.497,-10.031 -5.497,-16.504c0,-6.553 2.076,-12.06 6.212,-16.504c4.137,-4.467 9.633,-7.02 16.504,-7.696l0,-5.899l8.762,0l0,5.899c6.424,0.757 11.525,2.925 15.326,6.51c3.785,3.585 6.219,8.373 7.265,14.373l-15.305,1.965c-0.95,-4.707 -3.375,-7.9 -7.286,-9.581l0,23.408c9.691,2.583 16.299,5.958 19.79,10.075c3.523,4.138 5.27,9.44 5.27,15.908c0,7.23 -2.2,13.311 -6.62,18.271z"/>
  <path fill="#ffffff" id="svg_3" d="m260.443,261.695l0,23.489c3.025,-0.655 5.496,-2.089 7.389,-4.3c1.914,-2.219 2.857,-4.816 2.857,-7.826c0,-2.663 -0.805,-4.977 -2.404,-6.903c-1.586,-1.942 -4.194,-3.419 -7.842,-4.46z"/>
  <path fill="#ffffff" id="svg_4" d="m246.083,225.428c-1.375,1.927 -2.061,4.029 -2.061,6.35c0,2.102 0.62,4.073 1.877,5.892c1.25,1.804 3.187,3.281 5.782,4.386l0,-20.767c-2.368,0.844 -4.218,2.211 -5.598,4.139z"/>
  <path fill="#ffffff" id="svg_5" d="m474.881,259.269c0.201,-0.205 0.385,-0.425 0.545,-0.664c0.006,-0.009 0.014,-0.019 0.02,-0.028c0.064,-0.096 0.104,-0.202 0.16,-0.302c0.004,-0.008 0.008,-0.015 0.011,-0.022c0.083,-0.15 0.174,-0.295 0.241,-0.454c0.004,-0.012 0.011,-0.024 0.016,-0.036c0.045,-0.111 0.065,-0.227 0.102,-0.339c0.012,-0.036 0.021,-0.073 0.032,-0.109c0.038,-0.13 0.09,-0.255 0.116,-0.389c0.003,-0.011 0.005,-0.02 0.007,-0.031c0.022,-0.116 0.021,-0.234 0.034,-0.352c0.021,-0.179 0.052,-0.356 0.052,-0.536c0,-0.001 0.001,-0.002 0.001,-0.004c0,-0.003 -0.001,-0.005 -0.001,-0.006c0,-0.112 -0.024,-0.222 -0.032,-0.333c-0.013,-0.187 -0.018,-0.374 -0.054,-0.558c-0.002,-0.008 -0.005,-0.016 -0.006,-0.024c-0.026,-0.133 -0.077,-0.256 -0.115,-0.385c-0.044,-0.153 -0.077,-0.31 -0.138,-0.459c-0.004,-0.01 -0.01,-0.02 -0.014,-0.03c-0.062,-0.147 -0.146,-0.282 -0.223,-0.422c-0.064,-0.121 -0.116,-0.247 -0.192,-0.362c-0.005,-0.007 -0.011,-0.014 -0.016,-0.021c-0.142,-0.212 -0.308,-0.405 -0.481,-0.591c-0.035,-0.037 -0.059,-0.078 -0.094,-0.114c0,-0.001 -0.002,-0.001 -0.004,-0.003c-0.003,-0.003 -0.006,-0.006 -0.01,-0.01c0,0 0,0 -0.002,-0.001l-26.938,-26.82c-1.834,-1.826 -4.801,-1.82 -6.626,0.015c-1.825,1.834 -1.819,4.8 0.015,6.625l18.897,18.814l-56.28,0c-1.172,-37.083 -16.184,-70.748 -40.058,-96.046l40.134,-39.95l0.006,24.481c0.001,2.587 2.098,4.685 4.686,4.685l0,0c2.589,-0.001 4.686,-2.099 4.686,-4.687l-0.008,-35.74c0,-0.001 0,-0.002 0,-0.002l0,-0.011c0,-0.044 -0.012,-0.084 -0.013,-0.128c-0.007,-0.263 -0.028,-0.525 -0.079,-0.785c-0.027,-0.135 -0.077,-0.261 -0.115,-0.393c-0.047,-0.162 -0.085,-0.325 -0.15,-0.482c-0.062,-0.15 -0.146,-0.288 -0.225,-0.429c-0.067,-0.126 -0.123,-0.256 -0.204,-0.377c-0.144,-0.214 -0.31,-0.41 -0.485,-0.597c-0.034,-0.037 -0.059,-0.078 -0.093,-0.114c-0.001,-0.001 -0.003,-0.002 -0.005,-0.003c-0.217,-0.218 -0.457,-0.414 -0.713,-0.586c-0.107,-0.071 -0.225,-0.12 -0.336,-0.182c-0.155,-0.086 -0.305,-0.18 -0.471,-0.249c-0.149,-0.062 -0.306,-0.097 -0.459,-0.143c-0.14,-0.041 -0.272,-0.095 -0.416,-0.125c-0.303,-0.06 -0.609,-0.091 -0.915,-0.091c-0.003,0 -0.005,-0.001 -0.007,-0.001l0,0l-35.92,0c-2.589,0 -4.686,2.098 -4.686,4.686s2.097,4.686 4.686,4.686l24.572,0l-72.773,72.437l32.66,-32.51c-25.424,-23.752 -59.254,-38.687 -96.519,-39.846l0,-56.059l18.95,18.859c0.914,0.91 2.109,1.365 3.305,1.365c1.201,0 2.405,-0.46 3.32,-1.38c1.826,-1.834 1.818,-4.801 -0.016,-6.626l-26.921,-26.795c-0.002,0 -0.002,-0.001 -0.002,-0.002c-0.001,-0.001 -0.001,-0.001 -0.002,-0.002l-0.005,-0.004c-0.001,-0.001 -0.001,-0.002 -0.003,-0.003l-0.006,-0.006c-0.029,-0.029 -0.064,-0.047 -0.094,-0.076c-0.189,-0.18 -0.39,-0.351 -0.607,-0.497c-0.01,-0.006 -0.018,-0.013 -0.027,-0.019c-0.113,-0.074 -0.235,-0.124 -0.353,-0.187c-0.142,-0.077 -0.277,-0.163 -0.427,-0.225c-0.012,-0.005 -0.023,-0.012 -0.035,-0.017c-0.149,-0.06 -0.305,-0.092 -0.459,-0.137c-0.127,-0.038 -0.248,-0.088 -0.38,-0.113c-0.009,-0.002 -0.018,-0.004 -0.027,-0.006c-0.169,-0.033 -0.342,-0.037 -0.514,-0.05c-0.125,-0.011 -0.251,-0.036 -0.377,-0.037c-0.001,0 -0.003,0 -0.005,0c-0.001,0 -0.002,0 -0.003,0c-0.173,0 -0.344,0.03 -0.516,0.049c-0.125,0.014 -0.251,0.013 -0.375,0.037c-0.011,0.002 -0.022,0.005 -0.033,0.007c-0.116,0.024 -0.223,0.068 -0.336,0.101c-0.044,0.012 -0.088,0.026 -0.131,0.04c-0.123,0.038 -0.249,0.061 -0.369,0.11c-0.013,0.005 -0.025,0.012 -0.038,0.017c-0.145,0.061 -0.275,0.145 -0.412,0.218c-0.001,0.001 -0.002,0.001 -0.003,0.002c-0.12,0.065 -0.246,0.115 -0.362,0.192c-0.009,0.006 -0.018,0.014 -0.028,0.02c-0.206,0.138 -0.394,0.302 -0.575,0.47c-0.04,0.037 -0.086,0.063 -0.125,0.102l-26.938,26.812c-1.834,1.826 -1.84,4.792 -0.016,6.626c0.916,0.92 2.119,1.38 3.321,1.38c1.195,0 2.391,-0.455 3.305,-1.365l18.947,-18.858l0,56.055c-37.262,1.16 -71.092,16.093 -96.515,39.844l-40.114,-39.925l24.571,0c2.588,0 4.685,-2.098 4.685,-4.686s-2.097,-4.686 -4.685,-4.686l-35.92,0l-0.001,0c-0.002,0 -0.004,0.001 -0.007,0.001c-0.306,0 -0.613,0.032 -0.915,0.091c-0.141,0.028 -0.271,0.083 -0.408,0.123c-0.156,0.046 -0.314,0.082 -0.467,0.145c-0.162,0.068 -0.308,0.16 -0.459,0.244c-0.116,0.064 -0.237,0.114 -0.348,0.188c-0.256,0.171 -0.495,0.367 -0.713,0.585c-0.001,0.001 -0.003,0.001 -0.005,0.003c-0.038,0.04 -0.064,0.085 -0.102,0.125c-0.171,0.184 -0.336,0.375 -0.476,0.585c-0.08,0.119 -0.136,0.248 -0.203,0.374c-0.078,0.144 -0.164,0.282 -0.227,0.434c-0.063,0.153 -0.1,0.313 -0.146,0.47c-0.026,0.087 -0.061,0.171 -0.081,0.26c-0.009,0.04 -0.027,0.074 -0.036,0.113c-0.002,0.011 -0.001,0.023 -0.003,0.033c-0.049,0.25 -0.069,0.503 -0.077,0.757c-0.002,0.053 -0.016,0.102 -0.016,0.155l-0.007,35.752c0,2.588 2.097,4.686 4.685,4.687c0.001,0 0.001,0 0.001,0c2.587,0 4.685,-2.098 4.685,-4.685l0.006,-24.481l72.833,72.492l-32.698,-32.544c-23.875,25.297 -38.888,58.964 -40.059,96.048l-56.28,0l18.897,-18.814c1.834,-1.826 1.84,-4.792 0.015,-6.625c-1.826,-1.834 -4.792,-1.841 -6.626,-0.015l-26.938,26.82c0,0.001 -0.001,0.002 -0.002,0.003c-0.003,0.003 -0.005,0.005 -0.008,0.008c-0.001,0.001 -0.003,0.002 -0.004,0.003c-0.039,0.04 -0.064,0.085 -0.102,0.125c-0.169,0.182 -0.333,0.37 -0.471,0.578c-0.007,0.008 -0.013,0.016 -0.019,0.024c-0.075,0.114 -0.125,0.238 -0.189,0.357c-0.076,0.14 -0.162,0.274 -0.223,0.424c-0.005,0.012 -0.012,0.023 -0.017,0.035c-0.057,0.139 -0.085,0.285 -0.127,0.427c-0.002,0.008 -0.005,0.017 -0.008,0.025c-0.038,0.13 -0.089,0.253 -0.115,0.388c-0.002,0.009 -0.005,0.019 -0.007,0.028c-0.026,0.139 -0.027,0.28 -0.041,0.42c-0.017,0.157 -0.045,0.312 -0.045,0.469c0,0.002 -0.001,0.003 -0.001,0.005s0.001,0.003 0.001,0.005c0,0.133 0.026,0.265 0.038,0.397c0.015,0.165 0.017,0.331 0.048,0.494c0.002,0.009 0.005,0.017 0.007,0.026c0.026,0.133 0.078,0.257 0.115,0.386c0.044,0.153 0.076,0.308 0.135,0.455c0.005,0.012 0.011,0.022 0.017,0.033c0.061,0.149 0.147,0.284 0.224,0.425c0.064,0.118 0.113,0.243 0.188,0.356c0.005,0.008 0.013,0.018 0.019,0.025c0.147,0.22 0.318,0.419 0.499,0.61c0.027,0.028 0.046,0.063 0.075,0.092c0.001,0.001 0.002,0.002 0.003,0.003c0.003,0.002 0.006,0.005 0.008,0.008c0.002,0.001 0.003,0.003 0.003,0.005l26.938,26.812c0.915,0.909 2.11,1.364 3.306,1.364c1.203,0 2.406,-0.46 3.321,-1.38c1.826,-1.834 1.818,-4.801 -0.016,-6.627l-18.894,-18.805l56.277,0c1.171,37.083 16.185,70.749 40.062,96.045l32.695,-32.541l-72.833,72.492l-0.006,-24.48c0,-2.588 -2.098,-4.685 -4.685,-4.685c0,0 0,0 -0.001,0c-2.587,0 -4.685,2.098 -4.685,4.686l0.007,35.752c0,0.053 0.014,0.102 0.016,0.154c0.008,0.254 0.027,0.508 0.077,0.757c0.002,0.011 0.001,0.022 0.003,0.032c0.008,0.039 0.026,0.074 0.036,0.113c0.02,0.089 0.055,0.173 0.081,0.26c0.045,0.158 0.083,0.317 0.146,0.47s0.149,0.29 0.227,0.434c0.067,0.126 0.123,0.254 0.203,0.374c0.14,0.21 0.305,0.401 0.476,0.585c0.038,0.041 0.063,0.087 0.102,0.126c0.002,0.002 0.004,0.003 0.005,0.004c0.218,0.218 0.457,0.413 0.714,0.585c0.113,0.076 0.236,0.128 0.355,0.192c0.149,0.082 0.293,0.173 0.453,0.239c0.153,0.063 0.313,0.1 0.471,0.146c0.135,0.04 0.265,0.092 0.405,0.12c0.303,0.061 0.611,0.093 0.919,0.093l0.001,0l35.92,0c2.588,0 4.685,-2.098 4.685,-4.686s-2.097,-4.686 -4.685,-4.686l-24.571,0l72.778,-72.437l-32.662,32.51c25.423,23.747 59.252,38.679 96.513,39.838l0,56.063l-18.947,-18.858c-1.834,-1.826 -4.801,-1.819 -6.626,0.016c-1.825,1.834 -1.818,4.801 0.016,6.626l26.938,26.812c0.04,0.04 0.087,0.066 0.127,0.104c0.182,0.169 0.369,0.331 0.576,0.471c0.009,0.006 0.017,0.013 0.025,0.019c0.114,0.075 0.238,0.124 0.356,0.188c0.142,0.076 0.276,0.162 0.426,0.224c0.011,0.005 0.021,0.012 0.032,0.017c0.147,0.06 0.302,0.091 0.454,0.135c0.131,0.038 0.255,0.089 0.39,0.116c0.008,0.002 0.017,0.005 0.024,0.007c0.295,0.057 0.596,0.086 0.895,0.086c0.3,0 0.6,-0.029 0.895,-0.086c0.008,-0.002 0.016,-0.005 0.024,-0.007c0.137,-0.027 0.262,-0.079 0.394,-0.117c0.151,-0.044 0.304,-0.075 0.45,-0.134c0.011,-0.005 0.021,-0.011 0.031,-0.016c0.152,-0.063 0.291,-0.15 0.434,-0.229c0.116,-0.063 0.238,-0.11 0.35,-0.185c0.01,-0.006 0.018,-0.013 0.025,-0.019c0.218,-0.146 0.416,-0.315 0.605,-0.495c0.031,-0.028 0.067,-0.049 0.098,-0.079l0.006,-0.006c0.002,-0.001 0.002,-0.002 0.003,-0.003l0.005,-0.005c0.001,-0.001 0.001,-0.001 0.002,-0.002c0,0 0,0 0.002,-0.001l26.922,-26.795c1.834,-1.825 1.842,-4.792 0.016,-6.626s-4.793,-1.842 -6.625,-0.016l-18.95,18.859l0,-56.061c37.263,-1.159 71.094,-16.093 96.519,-39.843l-32.66,-32.512l72.773,72.443l-24.572,0c-2.589,0 -4.686,2.098 -4.686,4.686s2.097,4.686 4.686,4.686l35.92,0l0,0c0.308,0 0.615,-0.032 0.919,-0.093c0.144,-0.028 0.276,-0.082 0.415,-0.123c0.154,-0.046 0.311,-0.081 0.46,-0.143c0.165,-0.069 0.316,-0.163 0.472,-0.249c0.112,-0.063 0.229,-0.111 0.336,-0.184c0.258,-0.172 0.497,-0.367 0.715,-0.585c0.002,-0.002 0.004,-0.003 0.005,-0.004c0.034,-0.036 0.059,-0.077 0.093,-0.113c0.176,-0.188 0.342,-0.383 0.485,-0.598c0.081,-0.121 0.137,-0.251 0.204,-0.377c0.078,-0.143 0.163,-0.279 0.225,-0.43c0.065,-0.157 0.104,-0.32 0.15,-0.482c0.038,-0.132 0.088,-0.257 0.115,-0.393c0.051,-0.259 0.072,-0.521 0.079,-0.784c0.001,-0.044 0.013,-0.084 0.013,-0.128l0,-0.011c0,0 0,-0.001 0,-0.002l0.008,-35.739c0,-2.588 -2.097,-4.686 -4.686,-4.686l0,0c-2.588,0 -4.685,2.097 -4.686,4.685l-0.006,24.479l-72.826,-72.498l32.692,32.544c23.874,-25.296 38.886,-58.959 40.058,-96.04l56.276,0l-18.894,18.805c-1.834,1.826 -1.842,4.793 -0.016,6.627c0.916,0.92 2.119,1.38 3.32,1.38c1.195,0 2.392,-0.455 3.307,-1.364l26.938,-26.812c0.002,-0.001 0.002,-0.003 0.004,-0.005c0.004,-0.003 0.007,-0.007 0.011,-0.01c0,0 0,0 0.001,-0.001c0.01,-0.011 0.018,-0.025 0.028,-0.037zm-218.882,72.92c-42.197,0 -76.527,-34.179 -76.527,-76.188c0,-42.011 34.33,-76.189 76.527,-76.189c42.196,0 76.526,34.178 76.526,76.189c0,42.01 -34.33,76.188 -76.526,76.188z"/>
 </g>
</svg>