<svg width="26" height="26" xmlns="http://www.w3.org/2000/svg">

 <g>
  <title>background</title>
  <rect fill="none" id="canvas_background" height="402" width="582" y="-1" x="-1"/>
 </g>
 <g>
  <title>Layer 1</title>
  <path id="svg_2" fill="#9b9b9b" d="m23.43359,8.87891l-2.25378,0l-0.64563,-3.65821c-0.14844,-0.84961 -0.96777,-1.41699 -1.81152,-1.2705l-16.42871,2.89746c-0.84864,0.14941 -1.41797,0.96289 -1.26758,1.8125l1.75195,9.93359c0.07227,0.41113 0.29981,0.77051 0.6416,1.01074c0.2666,0.18653 0.57617,0.28418 0.89453,0.28418c0.0918,0 0.1836,-0.00781 0.27539,-0.02441l0.59864,-0.10572l0,0.75123c0,0.8623 0.70117,1.56347 1.56347,1.56347l16.68164,0c0.86231,0 1.56446,-0.70117 1.56446,-1.56347l0,-10.06739c0,-0.8623 -0.70215,-1.56347 -1.56446,-1.56347zm-4.37597,-3.39844l0.28668,1.625l-10.05963,1.77344l-2.53272,0c-0.53106,0 -0.99951,0.26715 -1.28222,0.67297l-2.68036,0.47241l-0.00324,-0.01843l-0.23144,-1.68164l16.50293,-2.84375zm-14.80274,12.85351l-1.0086,-5.71899l1.9422,-0.34253l0,5.93683l-0.9336,0.12469zm19.24317,2.17579c0,0.03515 -0.0293,0.06347 -0.06446,0.06347l-16.74511,-0.06347l0,-8.43946l0.06347,-1.6914l16.7461,0.06347l0,10.06739z"/>
  <path id="svg_3" fill="#9b9b9b" d="m9.0332,16.88184l1.23535,0c0.74317,0 1.34766,-0.6045 1.34766,-1.34766l0,-1.23535c0,-0.74219 -0.60449,-1.34668 -1.34766,-1.34668l-1.23535,0c-0.74218,0 -1.34668,0.60449 -1.34668,1.34668l0,1.23535c0,0.74316 0.6045,1.34766 1.34668,1.34766zm-0.34668,-2.58301c0,-0.19141 0.15528,-0.34668 0.34668,-0.34668l1.23535,0c0.19141,0 0.34766,0.15527 0.34766,0.34668l0,1.23535c0,0.19141 -0.15625,0.34766 -0.34766,0.34766l-1.23535,0c-0.1914,0 -0.34668,-0.15625 -0.34668,-0.34766l0,-1.23535z"/>
  <path id="svg_4" fill="#9b9b9b" d="m18.78711,17.49902c-0.19531,0.19532 -0.19531,0.51172 0,0.70703c0.09766,0.09766 0.22559,0.14649 0.35352,0.14649s0.25585,-0.04883 0.35351,-0.14649c1.50586,-1.50488 1.50586,-3.95507 0,-5.45996c-0.19531,-0.19531 -0.51172,-0.19531 -0.70703,0s-0.19531,0.51172 0,0.70704c1.11523,1.11523 1.11523,2.93066 0,4.04589z"/>
  <path id="svg_5" fill="#9b9b9b" d="m17.59863,16.90527c-0.19531,0.19532 -0.19531,0.51172 0,0.70703c0.09766,0.09766 0.22559,0.14649 0.35352,0.14649s0.25586,-0.04883 0.35351,-0.14649c1.17774,-1.17773 1.17774,-3.09472 0,-4.27246c-0.19531,-0.19531 -0.51171,-0.19531 -0.70703,0s-0.19531,0.51172 0,0.70704c0.78809,0.78808 0.78809,2.07031 0,2.85839z"/>
  <path id="svg_6" fill="#9b9b9b" d="m16.41016,17.01855c0.09765,0.09766 0.22558,0.14649 0.35351,0.14649s0.25586,-0.04883 0.35352,-0.14649c0.84961,-0.85058 0.84961,-2.23437 0,-3.08398c-0.19531,-0.19531 -0.51172,-0.19531 -0.70703,0s-0.19532,0.51172 0,0.70703c0.45996,0.45996 0.45996,1.20899 0,1.66992c-0.19532,0.19532 -0.19532,0.5127 0,0.70703z"/>
  <path id="svg_7" fill="#9b9b9b" d="m21.05957,15.47656c0,0.98731 -0.38477,1.91699 -1.08496,2.61719c-0.19531,0.19531 -0.19531,0.51172 0,0.70703c0.09766,0.09766 0.22559,0.14649 0.35352,0.14649s0.25585,-0.04883 0.35351,-0.14649c0.88867,-0.88867 1.37793,-2.06933 1.37793,-3.32422c0,-1.25586 -0.48926,-2.43554 -1.37793,-3.32422c-0.19531,-0.19531 -0.51172,-0.19531 -0.70703,0s-0.19531,0.51172 0,0.70704c0.70019,0.69921 1.08496,1.6289 1.08496,2.61718z"/>
  <path id="svg_8" fill="#9b9b9b" d="m8.18652,19.6377l2.20996,0c0.27637,0 0.5,-0.22364 0.5,-0.5s-0.22363,-0.5 -0.5,-0.5l-2.20996,0c-0.27636,0 -0.5,0.22363 -0.5,0.5s0.22364,0.5 0.5,0.5z"/>
  <path id="svg_9" fill="#9b9b9b" d="m11.98535,19.6377l2.95996,0c0.27637,0 0.5,-0.22364 0.5,-0.5s-0.22363,-0.5 -0.5,-0.5l-2.95996,0c-0.27637,0 -0.5,0.22363 -0.5,0.5s0.22363,0.5 0.5,0.5z"/>
 </g>
</svg>