<svg width="512" height="512" xmlns="http://www.w3.org/2000/svg">

 <g>
  <title>background</title>
  <rect fill="none" id="canvas_background" height="402" width="582" y="-1" x="-1"/>
 </g>
 <g>
  <title>Layer 1</title>
  <path fill="#8c52e5" id="svg_2" fill-rule="evenodd" clip-rule="evenodd" d="m346.637,89.392c12.094,8.508 22.993,18.572 32.445,29.889l0,-29.889l-32.445,0zm-38.424,74.79c-14.901,-14.902 -35.504,-24.133 -58.273,-24.133c-22.743,0 -43.346,9.23 -58.247,24.133c-14.931,14.902 -24.161,35.504 -24.161,58.274c0,22.743 9.23,43.345 24.161,58.247c14.901,14.93 35.504,24.16 58.247,24.16c22.687,0 43.233,-9.174 58.107,-23.966l0.166,-0.194c14.904,-14.902 24.134,-35.504 24.134,-58.247c0,-22.77 -9.23,-43.372 -24.134,-58.274zm-58.273,-30.973c24.633,0 46.93,9.981 63.083,26.135c16.182,16.182 26.163,38.479 26.163,63.112c0,24.634 -10.009,46.959 -26.136,63.085l-0.223,0.194c-16.124,16.042 -38.367,25.968 -62.888,25.968c-24.633,0 -46.959,-10.01 -63.085,-26.162c-16.154,-16.126 -26.135,-38.451 -26.135,-63.085c0,-24.633 9.981,-46.931 26.135,-63.085c16.127,-16.153 38.453,-26.162 63.086,-26.162zm12.65,127.504c-1.836,1.057 -3.866,1.863 -6.033,2.363c-0.307,0.083 -0.612,0.111 -0.946,0.111c-1.892,0 -3.42,-1.529 -3.42,-3.42l0,-30.027c0,-0.334 0.056,-0.639 0.139,-0.945c0.528,-1.807 2.42,-2.863 4.227,-2.336c2.584,0.752 4.809,1.668 6.7,2.726c1.974,1.14 3.614,2.475 4.865,4.004l0.083,0.083c1.279,1.529 2.253,3.252 2.892,5.116c0.641,1.862 0.974,3.837 0.974,5.894c0,2.279 -0.361,4.477 -1.112,6.533c-0.751,2.058 -1.863,3.948 -3.363,5.672c-1.448,1.697 -3.145,3.114 -5.006,4.226zm-3.559,-5.811l0.11,-0.057c1.223,-0.75 2.336,-1.668 3.281,-2.779c0.944,-1.112 1.641,-2.309 2.113,-3.559c0.472,-1.279 0.694,-2.697 0.694,-4.227c0,-1.361 -0.194,-2.586 -0.556,-3.67c-0.39,-1.057 -0.946,-2.085 -1.724,-3.003l-0.112,-0.139c-0.723,-0.862 -1.723,-1.641 -2.946,-2.364l-0.861,-0.444l0,20.242l0.001,0zm-17.989,-70.73l-0.944,1.14c-0.667,0.944 -1.169,1.946 -1.502,2.947c-0.306,1.001 -0.472,2.058 -0.472,3.197c0,1.028 0.139,2.002 0.444,2.892l0.028,0.167c0.305,0.861 0.751,1.724 1.307,2.585l0.11,0.139c0.307,0.418 0.641,0.835 1.028,1.196l0,-14.263l0.001,0zm-2.641,-6.729c1.39,-1.028 2.948,-1.891 4.699,-2.53c0.417,-0.167 0.861,-0.277 1.361,-0.277c1.864,0 3.392,1.528 3.392,3.419l0,26.553c0,0.444 -0.083,0.917 -0.277,1.334c-0.723,1.751 -2.725,2.558 -4.448,1.807c-1.918,-0.806 -3.615,-1.779 -5.061,-2.891c-1.446,-1.112 -2.669,-2.363 -3.669,-3.754l-0.112,-0.166c-0.944,-1.363 -1.667,-2.809 -2.168,-4.311l-0.083,-0.222c-0.5,-1.585 -0.751,-3.253 -0.751,-4.949c0,-1.808 0.279,-3.559 0.833,-5.282c0.53,-1.668 1.363,-3.281 2.448,-4.811c1.056,-1.501 2.364,-2.836 3.836,-3.92zm9.453,48.989l0,32.084c0,0.501 -0.11,1.029 -0.333,1.502c-0.833,1.695 -2.864,2.391 -4.559,1.586c-1.613,-0.779 -3.171,-1.836 -4.643,-3.088c-1.418,-1.223 -2.781,-2.668 -4.061,-4.364c-1.306,-1.696 -2.39,-3.559 -3.28,-5.532c-0.446,-1.085 -0.861,-2.197 -1.223,-3.338l-13.346,1.586c0.696,3.281 1.668,6.255 2.892,8.925c1.584,3.476 3.615,6.45 6.089,8.896c2.446,2.447 5.31,4.421 8.509,5.866c3.197,1.445 6.81,2.447 10.814,2.947c1.751,0.14 3.141,1.612 3.141,3.392l0,10.732l4.338,0l0,-10.87c0,-1.67 1.223,-3.114 2.892,-3.365c4.643,-0.723 8.786,-2.002 12.373,-3.809c3.502,-1.779 6.532,-4.087 9.063,-6.951c2.53,-2.836 4.421,-6.006 5.672,-9.453c1.279,-3.503 1.89,-7.367 1.89,-11.621c0,-3.781 -0.5,-7.201 -1.5,-10.23c-0.946,-2.976 -2.42,-5.617 -4.366,-7.926c-1.946,-2.307 -4.838,-4.42 -8.617,-6.365c-3.92,-2.002 -8.843,-3.811 -14.708,-5.366c-1.528,-0.333 -2.697,-1.724 -2.697,-3.364l0,-29.943c0,-0.445 0.084,-0.891 0.277,-1.335c0.751,-1.724 2.753,-2.53 4.476,-1.779c3.058,1.307 5.533,3.226 7.424,5.755c1.308,1.695 2.308,3.643 3.059,5.867l12.816,-1.669c-0.584,-2.112 -1.335,-4.087 -2.225,-5.894c-1.362,-2.725 -3.113,-5.088 -5.254,-7.118c-2.112,-2.002 -4.615,-3.614 -7.479,-4.837c-2.893,-1.252 -6.201,-2.086 -9.871,-2.531c-1.807,-0.11 -3.225,-1.611 -3.225,-3.419l0,-4.144l-4.338,0l0,4.144c0,1.724 -1.306,3.226 -3.059,3.392c-4.002,0.389 -7.561,1.335 -10.704,2.809c-3.085,1.417 -5.81,3.42 -8.146,5.949c-2.335,2.529 -4.086,5.338 -5.255,8.424c-1.139,3.114 -1.751,6.563 -1.751,10.371c0,3.781 0.528,7.257 1.584,10.426c1.03,3.115 2.586,5.978 4.671,8.564c4.143,5.197 10.816,9.118 19.99,11.76c1.531,0.332 2.67,1.694 2.67,3.334zm-6.812,25.246l0,-22.716c-9.425,-3.059 -16.486,-7.507 -21.157,-13.373c-2.586,-3.197 -4.533,-6.756 -5.838,-10.677c-1.279,-3.863 -1.919,-8.063 -1.919,-12.566c0,-4.561 0.723,-8.813 2.197,-12.733c1.474,-3.948 3.671,-7.507 6.617,-10.677c2.92,-3.17 6.34,-5.672 10.26,-7.507c3.002,-1.418 6.282,-2.418 9.84,-3.003l0,-4.588c0,-1.862 1.53,-3.392 3.42,-3.392l11.15,0c1.89,0 3.42,1.529 3.42,3.392l0,4.616c3.226,0.583 6.199,1.446 8.925,2.614c3.587,1.527 6.783,3.613 9.509,6.199c2.695,2.53 4.893,5.533 6.615,8.98c1.697,3.364 2.92,7.117 3.643,11.287c0.334,1.863 -0.917,3.615 -2.779,3.949l-19.629,2.529c-1.779,0.223 -3.42,-1 -3.781,-2.725c-0.5,-2.447 -1.335,-4.477 -2.502,-6.061l0,20.49c5.281,1.529 9.842,3.309 13.65,5.256c4.614,2.362 8.201,5.059 10.731,8.006c2.503,2.976 4.421,6.395 5.672,10.204c1.225,3.726 1.835,7.868 1.835,12.372c0,4.977 -0.777,9.619 -2.308,13.901c-1.556,4.31 -3.892,8.229 -6.979,11.705c-3.112,3.503 -6.812,6.339 -11.093,8.508c-3.447,1.724 -7.284,3.03 -11.51,3.92l0,11.455c0,1.891 -1.53,3.419 -3.42,3.419l-11.15,0c-1.89,0 -3.42,-1.528 -3.42,-3.419l0,-11.205c-3.585,-0.667 -6.894,-1.696 -9.981,-3.085c-3.946,-1.809 -7.451,-4.227 -10.481,-7.229c-3.059,-3.03 -5.561,-6.673 -7.479,-10.927c-1.89,-4.143 -3.253,-8.869 -4.059,-14.18c-0.307,-1.862 0.972,-3.586 2.836,-3.864l20.072,-2.392c1.779,-0.223 3.392,1.002 3.753,2.725c0.361,1.808 0.89,3.504 1.53,5.005c0.667,1.529 1.474,2.92 2.446,4.144l1.364,1.643zm-121.025,-120.36l0,119.163l33.475,0l0,0l0.056,0l0,0l0.055,0l0,0l0.056,0l0,0l0.056,0l0,0l0.054,0l0,0l0.028,0l0.028,0l0.028,0l0,0l0.054,0.028l0,0l0.056,0l0,0l0.056,0l0,0l0.056,0.027l0,0l0.055,0l0,0l0.056,0l0,0l0.057,0.027l0,0l0.026,0l0.028,0l0.028,0.028l0,0l0.056,0l0,0l0.056,0.028l0,0l0.055,0l0,0l0.056,0.027l0,0l0.028,0.027l0.028,0l0.026,0l0,0l0.056,0.028l0,0l0.056,0.027l0,0l0.056,0l0,0l0.026,0.028l0.028,0l0.028,0.027l0,0l0.056,0.027l0,0l0.054,0l0,0l0.028,0.028l0.028,0l0.028,0.028l0,0l0.056,0.027l0,0l0.026,0.027l0.028,0l0.028,0.028l0,0l0.056,0.027l0,0l0.028,0.028l0.028,0l0.026,0.027l0,0l0.056,0.028l0,0l0.028,0.027l0,0l0.056,0.028l0,0l0.026,0.055l0.028,0l0.028,0.028l0,0l0.056,0.028l0,0l0.028,0.027l0,0l0.028,0.027l0.026,0l0.028,0.056l0,0l0.028,0.028l0.028,0l0.028,0.027l0,0l0.028,0.056l0,0l0.055,0.028l0,0l0.028,0.027l0,0l0.028,0.057l0.028,0l0.028,0.027l0,0l0.028,0.055l0,0l0.026,0.029l0.028,0l0.028,0.055l0,0l0.028,0.055l0,0l0.028,0.029l0,0l0.028,0.055l0.026,0l0.028,0.027l0,0l0.028,0.057l0,0l0.028,0.056l0,0l0.028,0.028l0,0l0.028,0.055l0,0l0.054,0.084l0,0l0.028,0.083l0,0l0.056,0.056l0,0l0.028,0.084l0,0l0.055,0.083l0,0l0.028,0.083l0,0l0.028,0.084l0,0l0.028,0.083l0,0l0.028,0.056l0,0l0.028,0.083l0,0l0.026,0.083l0,0l0,0.084l0.028,0l0,0.083l0,0l0.028,0.085l0,0l0,0.082l0.028,0l0,0.084l0,0l0,0.084l0.028,0l0,0.083l0,0l0,0.083l0,0l0,0.084l0,0l0,0.083l0,0.223l0,0.083l0,0l0,0.084l0,0l0,0.083l0,0l-0.028,0.083l0,0l0,0.084l0,0l-0.028,0.083l0,0l0,0.083l0,0l-0.028,0.084l0,0l-0.028,0.083l0,0l0,0.056l0,0l-0.026,0.084l0,0l-0.028,0.084l0,0l-0.028,0.083l0,0l-0.028,0.083l0,0l-0.028,0.055l0,0l-0.028,0.084l-0.026,0l-0.028,0.084l0,0l-0.028,0.056l0,0l-0.028,0.083l-0.028,0l-0.028,0.056l0,0l-0.028,0.083l0,0l-0.055,0.084l0,0l-0.028,0.056l-0.028,0l-0.028,0.056l0,0l-0.055,0.083l0,0l-0.056,0.056l0,0l-0.056,0.083l0,0l-0.054,0.056l0,0l-0.056,0.056l0,0l-0.056,0.056l0,0l-0.056,0.084l0,0l-0.054,0.055l0,0l-0.056,0.056l0,0l-0.083,0.056l0,0l-0.056,0.056l0,0l-0.056,0.056l0,0l-0.083,0.027l0,0l-0.056,0.057l-0.028,0l-0.056,0.055l0,0l-0.083,0.056l0,0l-51.935,32.196c22.882,49.517 68.672,95.029 110.016,136.15c12.899,12.816 25.356,25.217 36.588,37.2c11.26,-11.983 23.715,-24.384 36.588,-37.2c58.024,-57.691 124.778,-124.057 124.778,-198.123l0,-1.641l-28.805,0l0,0l-0.082,0l0,0l-0.084,0l-0.028,0l-0.054,-0.027l-0.028,0l-0.057,0l-0.028,0l-0.082,0l0,0l-0.084,-0.027l0,0l-0.082,0l0,0l-0.085,-0.028l0,0l-0.083,-0.028l0,0l-0.084,0l0,0l-0.082,-0.027l0,0l-0.084,-0.027l0,0l-0.057,-0.028l0,0l-0.082,-0.027l0,0l-0.084,-0.028l0,0l-0.083,-0.027l0,0l-0.084,-0.027l0,0l-0.056,-0.057l0,0l-0.083,-0.027l0,0l-0.085,-0.027l0,0l-0.054,-0.056l0,0l-0.085,-0.028l0,0l-0.054,-0.057l0,0l-0.085,-0.026l0,0l-0.056,-0.057l0,0l-0.054,-0.056l-0.028,0l-0.057,-0.055l0,0l-0.056,-0.027l0,0l-0.055,-0.057l-0.028,0l-0.056,-0.056l0,0l-0.057,-0.056l0,0l-0.055,-0.056l0,0l-0.056,-0.056l0,0l-0.056,-0.083l0,0l-0.055,-0.056l0,0l-0.057,-0.056l0,0l-0.056,-0.056l0,0l-0.055,-0.083l0,0l-0.028,-0.056l0,0l-0.056,-0.084l0,0l-0.028,-0.055l-0.027,0l-0.027,-0.084l0,0l-0.056,-0.055l0,0l-0.028,-0.084l0,0l-0.027,-0.056l-0.028,0l-0.026,-0.083l0,0l-0.028,-0.084l0,0l-0.028,-0.083l0,0l-0.027,-0.056l-0.028,0l-0.028,-0.084l0,0l0,-0.084l-0.028,0l0,-0.083l-0.026,0l0,-0.083l0,0l-0.027,-0.084l0,0l-0.028,-0.083l0,0l0,-0.083l-0.028,0l0,-0.056l0,0l0,-0.111l-0.027,0l0,-0.083l0,0l0,-0.084l-0.029,0l0,-0.083l0,0l0,-0.083l0,0l0,-0.084l0,-0.083l0,-91.722c-14.9,-19.823 -34.252,-36.116 -56.55,-47.377c-21.798,-10.981 -46.459,-17.182 -72.592,-17.182c-26.33,0 -51.214,6.312 -73.178,17.488c-22.459,11.46 -41.893,28.03 -56.739,48.159zm-6.839,-9.981l-33.752,0l0,132.564c0,1.862 -1.53,3.392 -3.42,3.392l-25.246,0l44.651,28.609l39.09,-24.244l7.007,-4.365l-24.912,0l0,0l-0.083,0l0,0l-0.084,0l-0.026,0l-0.056,0l-0.028,0l-0.056,0l-0.028,0l-0.083,-0.027l0,0l-0.084,0l0,0l-0.083,0l0,0l-0.084,-0.028l0,0l-0.083,-0.027l0,0l-0.084,-0.028l0,0l-0.083,0l0,0l-0.084,-0.027l0,0l-0.055,-0.027l-0.028,0l-0.056,-0.028l0,0l-0.084,-0.028l0,0l-0.083,-0.027l0,0l-0.084,-0.027l0,0l-0.054,-0.056l0,0l-0.084,-0.028l0,0l-0.083,-0.027l0,0l-0.056,-0.056l0,0l-0.084,-0.028l0,0l-0.055,-0.055l0,0l-0.084,-0.057l0,0l-0.055,-0.027l0,0l-0.056,-0.057l-0.028,0l-0.056,-0.055l0,0l-0.055,-0.057l0,0l-0.056,-0.055l-0.028,0l-0.056,-0.056l0,0l-0.055,-0.056l0,0l-0.056,-0.056l0,0l-0.057,-0.056l0,0l-0.054,-0.056l0,0l-0.056,-0.056l0,0l-0.056,-0.056l0,0l-0.054,-0.083l0,0l-0.056,-0.056l0,0l-0.028,-0.056l0,0l-0.056,-0.083l0,0l-0.054,-0.056l0,0l-0.028,-0.084l0,0l-0.056,-0.055l0,0l-0.028,-0.084l0,0l-0.028,-0.083l-0.026,0l-0.028,-0.056l0,0l-0.028,-0.084l0,0l-0.028,-0.084l0,0l-0.028,-0.055l-0.028,0l-0.026,-0.083l0,0l0,-0.083l-0.028,0l0,-0.084l-0.028,0l0,-0.084l0,0l-0.028,-0.084l0,0l-0.028,-0.083l0,0l0,-0.083l-0.028,0l0,-0.084l0,0l0,-0.083l-0.028,0l0,-0.083l0,0l0,-0.084l-0.026,0l0,-0.083l0,0l0,-0.083l0,0l0,-0.084l0,-0.083l0,-123.665l0,-0.166l0,-0.029l0,-8.702l-0.001,0zm6.839,-36.978c-1.362,1.279 -3.531,1.224 -4.81,-0.166c-1.305,-1.363 -1.223,-3.531 0.139,-4.811c17.906,-16.849 38.98,-30.389 62.251,-39.591c22.408,-8.897 46.82,-13.79 72.343,-13.79c1.89,0 3.42,1.529 3.42,3.42s-1.53,3.42 -3.42,3.42c-24.689,0 -48.266,4.727 -69.841,13.262c-22.438,8.897 -42.789,21.963 -60.082,38.256zm0.278,386.404c-1.863,0 -3.392,-1.557 -3.392,-3.42c0,-1.891 1.528,-3.42 3.392,-3.42l228.455,0c1.892,0 3.42,1.529 3.42,3.42c0,1.863 -1.528,3.42 -3.42,3.42l-228.455,0zm124.5,15.236c-1.862,0 -3.392,-1.529 -3.392,-3.393c0,-1.891 1.53,-3.419 3.392,-3.419l173.573,0c1.863,0 3.42,1.528 3.42,3.419c0,1.863 -1.557,3.393 -3.42,3.393l-173.573,0zm191.34,0c-1.892,0 -3.42,-1.529 -3.42,-3.393c0,-1.891 1.528,-3.419 3.42,-3.419l21.686,0c1.892,0 3.42,1.528 3.42,3.419c0,1.863 -1.528,3.393 -3.42,3.393l-21.686,0zm-348.064,-0.445c-1.89,0 -3.42,-1.529 -3.42,-3.419c0,-1.891 1.53,-3.42 3.42,-3.42l82.242,0c1.89,0 3.418,1.529 3.418,3.42c0,1.89 -1.528,3.419 -3.418,3.419l-82.242,0zm47.738,-39.814c-1.892,0 -3.42,-1.529 -3.42,-3.392c0,-1.891 1.528,-3.42 3.42,-3.42l39.591,0c1.864,0 3.392,1.529 3.392,3.42c0,1.862 -1.528,3.392 -3.392,3.392l-39.591,0zm286.897,-137.568c0.89,-1.668 2.974,-2.279 4.614,-1.362c1.669,0.89 2.279,2.947 1.363,4.615c-0.056,0.14 -26.914,49.017 -67.228,92.223c-1.279,1.39 -3.448,1.473 -4.838,0.193c-1.361,-1.278 -1.446,-3.446 -0.167,-4.81c39.786,-42.621 66.199,-90.72 66.256,-90.859zm-36.783,-89.636l28.72,0l0.084,0l4.948,0l0,-132.563c0,-1.863 1.528,-3.393 3.421,-3.393l25.245,0l-44.651,-28.609l-46.126,28.609l24.938,0c1.893,0 3.421,1.529 3.421,3.393l0,102.759l0,29.804z"/>
 </g>
</svg>