<svg width="64" height="64" xmlns="http://www.w3.org/2000/svg">

 <title/>
 <g>
  <title>background</title>
  <rect fill="none" id="canvas_background" height="402" width="582" y="-1" x="-1"/>
 </g>
 <g>
  <title>Layer 1</title>
  <path fill="#ffffff" id="svg_1" d="m52,7l-40,0a6,6 0 0 0 -6,6l0,38a6,6 0 0 0 6,6l40,0a6,6 0 0 0 6,-6l0,-38a6,6 0 0 0 -6,-6zm2,44a2,2 0 0 1 -2,2l-40,0a2,2 0 0 1 -2,-2l0,-38a2,2 0 0 1 2,-2l40,0a2,2 0 0 1 2,2l0,38z" class="cls-1"/>
  <path fill="#ffffff" id="svg_2" d="m45,29a2,2 0 0 0 0,-4l-22.17,0l2.58,-2.59a2,2 0 0 0 -2.82,-2.82l-6,6a2,2 0 0 0 -0.44,2.18a2,2 0 0 0 1.85,1.23l27,0z" class="cls-1"/>
  <path fill="#ffffff" id="svg_3" d="m47,36l-27,0a2,2 0 0 0 0,4l22.17,0l-2.58,2.59a2,2 0 1 0 2.82,2.82l6,-6a2,2 0 0 0 0.44,-2.18a2,2 0 0 0 -1.85,-1.23z" class="cls-1"/>
 </g>
</svg>