<svg width="48" height="48" xmlns="http://www.w3.org/2000/svg">

 <g>
  <title>background</title>
  <rect fill="none" id="canvas_background" height="402" width="582" y="-1" x="-1"/>
 </g>
 <g>
  <title>Layer 1</title>
  <path id="svg_1" fill="none" d="m0,0l48,0l0,48l-48,0l0,-48z"/>
  <path fill="#8c52e5" id="svg_2" d="m24,9c-10,0 -18.54,6.22 -22,15c3.46,8.78 12,15 22,15s18.54,-6.22 22,-15c-3.46,-8.78 -11.99,-15 -22,-15zm0,25c-5.52,0 -10,-4.48 -10,-10s4.48,-10 10,-10s10,4.48 10,10s-4.48,10 -10,10zm0,-16c-3.31,0 -6,2.69 -6,6s2.69,6 6,6s6,-2.69 6,-6s-2.69,-6 -6,-6z"/>
 </g>
</svg>