<svg width="32" height="32" xmlns="http://www.w3.org/2000/svg">

 <g>
  <title>background</title>
  <rect fill="none" id="canvas_background" height="402" width="582" y="-1" x="-1"/>
 </g>
 <g>
  <title>Layer 1</title>
  <path fill="#8c52e5" id="svg_3" d="m16,28c-2.1377,0 -4.22559,-0.42578 -6.20508,-1.26514c-0.50781,-0.21533 -0.74609,-0.80224 -0.53027,-1.31103c0.2168,-0.50928 0.80273,-0.74512 1.31152,-0.52979c1.73047,0.73389 3.55567,1.10596 5.42383,1.10596c6.00488,0 11.43164,-3.91162 13.92383,-10c-0.92285,-2.25146 -2.29688,-4.28613 -3.98828,-5.90234c-0.39942,-0.38184 -0.41407,-1.01465 -0.03223,-1.41407c0.38184,-0.39892 1.01465,-0.41357 1.41309,-0.03222c1.99316,1.90478 3.58984,4.32177 4.61718,6.98925c0.08887,0.23145 0.08887,0.48731 0,0.71875c-2.72363,7.07129 -8.97754,11.64063 -15.93359,11.64063z"/>
  <path fill="#8c52e5" id="svg_5" d="m7.59082,25.40869c-0.19141,0 -0.38477,-0.05469 -0.55566,-0.16943c-3.08399,-2.06641 -5.5586,-5.21973 -6.96875,-8.87989c-0.08887,-0.23144 -0.08887,-0.4873 0,-0.71875c2.72363,-7.07128 8.97754,-11.64062 15.93359,-11.64062c3.16992,0 6.26953,0.95459 8.96484,2.76074c0.45899,0.30713 0.58106,0.92822 0.27442,1.38721c-0.3086,0.45947 -0.92969,0.58154 -1.3877,0.27393c-2.36523,-1.58448 -5.08008,-2.42188 -7.85156,-2.42188c-6.00488,0 -11.43164,3.91162 -13.92383,10c1.28223,3.12549 3.42774,5.80615 6.07227,7.57813c0.45898,0.30712 0.58105,0.92822 0.27441,1.3872c-0.19336,0.28809 -0.50976,0.44336 -0.83203,0.44336z"/>
  <path fill="#8c52e5" id="svg_7" d="m3,30c-0.25586,0 -0.51172,-0.09766 -0.70703,-0.29297c-0.39063,-0.39062 -0.39063,-1.02344 0,-1.41406l26,-26c0.39062,-0.39063 1.02344,-0.39063 1.41406,0s0.39063,1.02344 0,1.41406l-26,26c-0.19531,0.19531 -0.45117,0.29297 -0.70703,0.29297z"/>
  <path fill="#8c52e5" id="svg_10" d="m14.25873,21.74127c0.55133,0.16699 1.13543,0.25873 1.74127,0.25873c3.31372,0 6,-2.68628 6,-6c0,-0.60584 -0.09174,-1.18994 -0.25873,-1.74127l-7.48254,7.48254z"/>
  <path fill="#8c52e5" id="svg_12" d="m20.24268,11.75732c-1.08582,-1.08575 -2.58582,-1.75732 -4.24268,-1.75732c-3.31372,0 -6,2.68628 -6,6c0,1.65686 0.67157,3.15686 1.75739,4.24261l8.48529,-8.48529z"/>
 </g>
</svg>