<svg width="47.99999999999999" height="47.99999999999999" xmlns="http://www.w3.org/2000/svg">

 <g>
  <title>background</title>
  <rect fill="none" id="canvas_background" height="402" width="582" y="-1" x="-1"/>
 </g>
 <g>
  <title>Layer 1</title>
  <path id="svg_1" fill="none" d="m0,0l48,0l0,48l-48,0l0,-48z"/>
  <path fill="#ffffff" id="svg_2" d="m4,42l38,0l0,-6l-38,0l0,6zm36,-26l-34,0c-1.1,0 -2,0.9 -2,2l0,12c0,1.1 0.9,2 2,2l34,0c1.1,0 2,-0.9 2,-2l0,-12c0,-1.1 -0.9,-2 -2,-2zm-36,-10l0,6l38,0l0,-6l-38,0z"/>
 </g>
</svg>